<svg width="182.02734374999997" height="182.02734374999997" viewBox="0 0 312.5 312.5" class="looka-1j8o68f">
  <defs id="SvgjsDefs1525"></defs>
  <g id="SvgjsG1526" featurekey="rootContainer" transform="matrix(6.25,0,0,6.25,0,0)" fill="#ffffff">
    <path xmlns="http://www.w3.org/2000/svg" d="M5 0h45v45a5 5 0 0 1-5 5H0V5a5 5 0 0 1 5-5z"></path>
  </g>
  <g id="SvgjsG1527" featurekey="symbolFeature-0"
    transform="matrix(0.7999999389648484,0,0,0.7999999389648484,116,82.9391997574463)" fill="#3532a7">
    <path xmlns="http://www.w3.org/2000/svg"
      d="M92.781,22.563c0,0-2.897-0.35-7.225-0.839l0.382-3.157l-13.097-1.577l-0.402,3.329c-0.759-0.074-1.521-0.151-2.284-0.227  l-1.43-4.233c0-2.495-2.473-4.533-5.493-4.533H45.158c-3.02,0-5.492,2.038-5.492,4.533l-1.053,3.453  c-8.612,0.7-18.949,1.831-25.303,2.555l-0.085,0.01c-2.899,0.179-5.176,0.405-6.985,0.798c-0.281,0.048-0.553,0.118-0.824,0.193  c-0.093,0.026-0.174,0.056-0.264,0.085c-0.203,0.064-0.412,0.112-0.605,0.195C1.01,24.406,0,26.901,0,32.445V78.84  c0,1.146,0.07,2.225,0.227,3.223c0.077,0.9,0.311,1.75,0.69,2.527c0.781,1.848,2.159,3.17,4.421,3.748  c0.651,0.199,1.329,0.336,2.043,0.336h85.4c3.969,0,7.219-3.25,7.219-7.219V29.778C100,25.811,96.75,22.563,92.781,22.563z   M67.434,79.994c-13.571,0-24.577-11.006-24.577-24.58c0-13.573,11.006-24.578,24.577-24.578c13.576,0,24.58,11.005,24.58,24.578  C92.014,68.988,81.01,79.994,67.434,79.994z">
    </path>
    <path xmlns="http://www.w3.org/2000/svg"
      d="M83.367,55.621c0,8.801-7.134,15.934-15.934,15.934c-8.797,0-15.931-7.133-15.931-15.934  c0-8.797,7.134-15.929,15.931-15.929C76.233,39.692,83.367,46.824,83.367,55.621z">
    </path>
  </g>
  <g id="SvgjsG1528" featurekey="nameFeature-0"
    transform="matrix(1.5070963065493128,0,0,1.5070963065493128,52.674241223025575,159.1640263084155)" fill="#3532a7">
    <path
      d="M2.207 10.390999999999998 l13.672 0 q2.28515625 0 4.19921875 0.712890625 t3.3008 1.9238 t2.168 2.793 t0.78125 3.3008 q0 2.0703125 -0.615234375 3.876953125 t-1.9043 3.1348 t-3.2617 2.0996 t-4.668 0.77148 l-4.1211 0 l0 5.6445 l2.7148 0 l0 5.3516 l-12.266 0 l0 -5.3516 l3.0664 0 l0 -18.887 l-3.0664 0 l0 -5.3711 z M11.758 15.762 l0 7.9492 l2.6758 0 q2.2265625 0 3.53515625 -0.9375 t1.3086 -2.9688 q0 -1.89453125 -1.23046875 -2.96875 t-3.6133 -1.0742 l-2.6758 0 z M30.69576953125 10.390999999999998 l12.676 0 l0 5.3516 l-3.125 0 l0 18.906 l3.125 0 l0 5.3516 l-12.676 0 l0 -5.3516 l3.0664 0 l0 -18.906 l-3.0664 0 l0 -5.3516 z M67.0561015625 19.395 q-1.09375 -1.5625 -1.97265625 -2.216796875 t-1.8945 -0.9375 t-2.1289 -0.2832 q-1.640625 0 -3.046875 0.732421875 t-2.4316 1.9922 t-1.6113 2.9297 t-0.58594 3.5449 q0 1.89453125 0.576171875 3.564453125 t1.5918 2.9199 t2.4219 1.9824 t3.0859 0.73242 q1.171875 0 2.1875 -0.380859375 t1.8457 -1.0059 t1.4551 -1.4355 t0.97656 -1.6895 l6.2891 1.7578 q-0.60546875 1.9140625 -1.77734375 3.544921875 t-2.8223 2.8223 t-3.7109 1.875 t-4.4434 0.68359 q-2.01171875 0 -3.84765625 -0.546875 t-3.4277 -1.543 t-2.8906 -2.4023 t-2.2168 -3.1152 t-1.4258 -3.6719 t-0.50781 -4.0918 q0 -3.18359375 1.11328125 -5.966796875 t3.0469 -4.8633 t4.541 -3.2813 t5.6152 -1.2012 q2.40234375 0 4.04296875 0.595703125 t3.6133 2.3535 l4.375 0 l0 6.6016 l-6.0352 0 z M77.94677359375 10.390999999999998 l11.875 0 l0 5.3711 l-2.7148 0 l0 12.285 q0 1.6796875 0.380859375 2.8515625 t1.0645 1.9141 t1.6211 1.084 t2.0508 0.3418 q1.15234375 0 2.099609375 -0.29296875 t1.6211 -1.0059 t1.0352 -1.9043 t0.36133 -2.9883 l0 -12.285 l-3.1445 0 l0 -5.3711 l11.875 0 l0 5.3711 l-2.3633 0 l0 11.523 q0 3.125 -0.8984375 5.556640625 t-2.4707 4.1113 t-3.6914 2.5586 t-4.541 0.87891 q-2.40234375 0 -4.4921875 -0.869140625 t-3.6426 -2.5195 t-2.4512 -4.0137 t-0.89844 -5.3516 l0 -11.875 l-2.6758 0 l0 -5.3711 z M110.790984375 10.390999999999998 l13.672 0 q2.28515625 0 4.19921875 0.712890625 t3.3008 1.9238 t2.168 2.793 t0.78125 3.3008 q0 2.0703125 -0.615234375 3.876953125 t-1.9043 3.1348 t-3.2617 2.0996 t-4.668 0.77148 l-4.1211 0 l0 5.6445 l2.7148 0 l0 5.3516 l-12.266 0 l0 -5.3516 l3.0664 0 l0 -18.887 l-3.0664 0 l0 -5.3711 z M120.341984375 15.762 l0 7.9492 l2.6758 0 q2.2265625 0 3.53515625 -0.9375 t1.3086 -2.9688 q0 -1.89453125 -1.23046875 -2.96875 t-3.6133 -1.0742 l-2.6758 0 z">
    </path>
  </g>
</svg>